<svg width="30" height="30" viewBox="0 0 30 30" fill="none" xmlns="http://www.w3.org/2000/svg">
<path d="M29.1506 12.9783L18.8466 16.7433C18.3338 16.9289 17.8125 17.5279 17.8125 18.0717V26.6901C17.8125 27.2339 18.3544 27.5236 18.8653 27.3314L29.1591 23.4858C29.67 23.2936 30 22.6936 30 22.1498V13.6261C30 13.0823 29.6634 12.7908 29.1506 12.9783Z" fill="black"/>
<path d="M10.2845 5.97233L3.3142 8.52983C2.82857 8.70701 2.73576 9.14858 3.1042 9.50951L5.71607 12.0642C6.08732 12.4251 6.77826 12.5564 7.25545 12.3586L14.3336 9.4092C14.8098 9.21139 14.8773 8.77545 14.4817 8.44264L11.8839 6.25451C11.4892 5.92076 10.7692 5.7942 10.2845 5.97233Z" fill="black"/>
<path d="M15.2091 9.9361C15.0637 10.0711 14.8969 10.1902 14.6944 10.2736L7.61531 13.2239C7.35469 13.3327 7.06594 13.388 6.75844 13.388C6.74062 13.388 6.72563 13.3833 6.70875 13.3833C6.0825 13.3786 5.46937 13.133 5.05969 12.7336L3.24187 11.002C3.24187 11.002 1.875 11.3386 1.875 12.5442V14.8992C1.875 15.4139 2.48906 16.0345 2.94656 16.2745L16.875 23.5214V18.0717C16.875 17.0648 17.7141 16.1564 18.525 15.862L23.4675 14.0564L15.2091 9.9361Z" fill="black"/>
<path d="M0.9375 14.8983V12.5433C0.9375 11.3067 1.81781 10.5923 2.53875 10.2661L2.44969 10.1798C2.03812 9.77857 1.86469 9.25919 1.97344 8.75482C2.08125 8.25044 2.45344 7.84732 2.99156 7.65044L9.96281 5.09201C10.2122 5.00013 10.4887 4.95419 10.7831 4.95419C11.2847 4.95419 11.7844 5.09388 12.1875 5.33107V3.31357C12.1875 2.76982 11.8509 2.47826 11.3381 2.66576L1.03406 6.42982C0.52125 6.61638 0 7.21544 0 7.75919V16.3776C0 16.9214 0.541875 17.2111 1.05281 17.0189L1.92656 16.6926C1.42594 16.2614 0.9375 15.6126 0.9375 14.8983Z" fill="black"/>
</svg>
