<svg width="30" height="30" viewBox="0 0 30 30" fill="none" xmlns="http://www.w3.org/2000/svg">
<g clip-path="url(#clip0_2012_72987)">
<path d="M29.4986 0.00610352H23.4999C23.2234 0.00610352 23 0.230043 23 0.505976V4.5052H25.4995C25.776 4.5052 25.9994 4.72914 25.9994 5.00507C25.9994 5.28101 25.7759 5.50494 25.4995 5.50494H23V7.00462H26.4993C26.7758 7.00462 26.9992 7.22856 26.9992 7.5045C26.9992 7.78043 26.7757 8.00437 26.4993 8.00437H23V9.50405H25.4995C25.776 9.50405 25.9994 9.72799 25.9994 10.0039C25.9994 10.2799 25.7759 10.5038 25.4995 10.5038H23V12.0035H26.4993C26.7758 12.0035 26.9992 12.2274 26.9992 12.5033C26.9992 12.7793 26.7757 13.0032 26.4993 13.0032H23V14.5029H25.4995C25.776 14.5029 25.9994 14.7268 25.9994 15.0028C25.9994 15.2787 25.7759 15.5026 25.4995 15.5026H23V17.0023H26.4993C26.7758 17.0023 26.9992 17.2263 26.9992 17.5022C26.9992 17.7781 26.7757 18.0021 26.4993 18.0021H23V19.5017H25.4995C25.776 19.5017 25.9994 19.7257 25.9994 20.0016C25.9994 20.2775 25.7759 20.5015 25.4995 20.5015H23V22.0012H26.4993C26.7758 22.0012 26.9992 22.2251 26.9992 22.501C26.9992 22.777 26.7757 23.0009 26.4993 23.0009H23V24.5006H25.4995C25.776 24.5006 25.9994 24.7245 25.9994 25.0005C25.9994 25.2764 25.7759 25.5003 25.4995 25.5003H23V27H26.4993C26.7758 27 26.9992 27.224 26.9992 27.4999C26.9992 27.7758 26.7757 27.9998 26.4993 27.9998H23V29.4994C23 29.7754 23.2235 29.9993 23.4999 29.9993H29.4986C29.7751 29.9993 29.9985 29.7754 29.9985 29.4994V0.506036C29.9986 0.230043 29.7751 0.00610352 29.4986 0.00610352ZM26.9992 4.00533C26.4473 4.00533 25.9994 3.55792 25.9994 3.00552C25.9994 2.45312 26.4473 2.00571 26.9992 2.00571C27.551 2.00571 27.999 2.45312 27.999 3.00552C27.999 3.55792 27.551 4.00533 26.9992 4.00533Z" fill="black"/>
<path d="M9.18255 13.3404L9.59648 14.1692L9.75997 14.4886L17.4144 6.83419L17.1214 6.73669C15.3183 5.96583 14.0411 4.68812 13.2852 2.92448L13.1737 2.59155L5.50977 10.2555L5.82769 10.4055C6.13114 10.578 8.49417 11.9652 9.18255 13.3404Z" fill="black"/>
<path d="M17.4757 5.80279L18.194 6.04221L19.3538 4.85843C19.7652 4.44754 20.0012 3.86315 20.0012 3.25524C20.0012 2.64787 19.7652 2.06348 19.3538 1.65205L18.354 0.652246C17.4857 -0.21659 16.0175 -0.217067 15.1511 0.648732L13.9648 1.81101L14.2178 2.56883C14.8548 4.05017 15.9555 5.1514 17.4757 5.80279Z" fill="black"/>
<path d="M0.503826 20.002C0.591318 20.002 0.679285 19.9795 0.758259 19.9325L5.09238 17.3705L2.65287 14.8835L0.0733984 19.2477C-0.0425616 19.4442 -0.0110553 19.6941 0.150407 19.8555C0.246415 19.952 0.374406 20.002 0.503826 20.002Z" fill="black"/>
<path d="M8.95053 15.0901L8.28765 13.7874C7.81827 12.8496 6.01859 11.6673 5.36423 11.2904L4.90479 11.074L3.17969 13.9929L5.97911 16.8468L8.95053 15.0901Z" fill="black"/>
<path d="M21.4995 26.0007H20.4867C20.3568 23.5072 19.26 21.2662 17.5658 19.6436L16.354 20.8553C16.2565 20.9528 16.1286 21.0018 16.0006 21.0018C15.8726 21.0018 15.7447 20.9528 15.6472 20.8553C15.4517 20.6599 15.4517 20.344 15.6472 20.1485L16.8045 18.9912C15.3222 17.8429 13.4917 17.1316 11.5015 17.0271V18.5023C11.5015 18.7782 11.2781 19.0022 11.0016 19.0022C10.7252 19.0022 10.5018 18.7782 10.5018 18.5023V17.0271C8.51169 17.1316 6.68105 17.8429 5.19882 18.9912L6.3561 20.1485C6.55157 20.344 6.55157 20.6599 6.3561 20.8553C6.2586 20.9528 6.13067 21.0018 6.00268 21.0018C5.87469 21.0018 5.74676 20.9528 5.64926 20.8553L4.43749 19.6436C2.74383 21.2662 1.64652 23.5073 1.51657 26.0007H0.503779C0.22731 26.0007 0.00390625 26.2247 0.00390625 26.5006V29.5C0.00390625 29.776 0.227369 29.9999 0.503779 29.9999H2.50339V28.5002C2.50339 28.2243 2.72685 28.0004 3.00326 28.0004C3.27973 28.0004 3.50314 28.2243 3.50314 28.5002V29.9999H6.50255V28.5002C6.50255 28.2243 6.72602 28.0004 7.00243 28.0004C7.27889 28.0004 7.5023 28.2243 7.5023 28.5002V29.9999H10.5017V28.5002C10.5017 28.2243 10.7252 28.0004 11.0016 28.0004C11.278 28.0004 11.5015 28.2243 11.5015 28.5002V29.9999H14.5009V28.5002C14.5009 28.2243 14.7243 28.0004 15.0008 28.0004C15.2772 28.0004 15.5006 28.2243 15.5006 28.5002V29.9999H18.5V28.5002C18.5 28.2243 18.7235 28.0004 18.9999 28.0004C19.2764 28.0004 19.4998 28.2243 19.4998 28.5002V29.9999H21.4994C21.7759 29.9999 21.9993 29.776 21.9993 29.5V26.5006C21.9994 26.2247 21.776 26.0007 21.4995 26.0007ZM5.52526 26.0007C5.77868 23.2018 8.1382 21.0018 11.0016 21.0018C13.8656 21.0018 16.2246 23.2019 16.478 26.0007H5.52526Z" fill="black"/>
</g>
<defs>
<clipPath id="clip0_2012_72987">
<rect width="30" height="30" fill="white"/>
</clipPath>
</defs>
</svg>
