<svg width="30" height="30" viewBox="0 0 30 30" fill="none" xmlns="http://www.w3.org/2000/svg">
<path d="M7.08648 25.4639L12.1622 19.3091L14.4839 22.2706L10.0088 27.9615C8.29498 30.1392 5.12359 27.8443 7.08648 25.4639ZM13.0142 11.4478C13.4976 9.87066 13.2754 8.523 11.459 6.52105L7.02057 1.18169C6.39068 0.441947 4.90631 1.52837 5.52642 2.42437L9.07623 6.79693C9.74762 7.61236 8.50006 8.69146 7.8067 7.85161L4.13482 3.33013C3.45123 2.54644 2.03765 3.5816 2.75299 4.47759C3.78814 5.72271 5.38971 7.7564 6.42486 9.00152C7.14264 9.7315 6.05133 10.813 5.34332 9.9024L1.6983 5.41021C1.16363 4.82915 0.289607 5.19048 0.0576739 5.86919C-0.19135 6.59429 0.421443 7.12408 0.838924 7.66119L4.90631 12.9151C6.16851 14.3775 7.57965 15.2442 9.22027 14.7535C9.47174 14.6778 9.77935 14.524 10.1089 14.3213L21.0367 28.4278C21.6251 29.1871 22.7603 29.2676 23.4976 28.6548L23.6661 28.5157C24.4962 27.8248 24.6304 26.5626 23.92 25.7471L12.3477 12.4512C12.6846 12.0752 12.9312 11.7188 13.0142 11.4478ZM16.1075 14.524L17.9068 12.3414C15.5923 6.60406 24.169 -1.04243 28.3267 2.4732C33.378 6.7481 25.8707 17.0508 20.5948 14.5044L18.4634 17.212L16.1075 14.524Z" fill="black"/>
</svg>
