<svg width="30" height="30" viewBox="0 0 30 30" fill="none" xmlns="http://www.w3.org/2000/svg">
<path d="M5.99961 1.20001C5.66961 1.20001 5.39961 1.47001 5.39961 1.80001V3.89415L1.45156 6.71368C1.29556 6.82168 1.19961 7.00801 1.19961 7.20001V9.60001C1.19961 9.93001 1.46961 10.2 1.79961 10.2H14.9996C15.3296 10.2 15.5996 9.93001 15.5996 9.60001V7.20001C15.5996 7.00801 15.5037 6.82168 15.3477 6.71368L11.3996 3.89415V1.80001C11.3996 1.47001 11.1296 1.20001 10.7996 1.20001H5.99961ZM4.19258 13.2C3.86318 13.2 3.59375 13.47 3.59375 13.8V14.4H1.19844C0.869038 14.4 0.599609 14.67 0.599609 15V28.2C0.599609 28.53 0.869038 28.8 1.19844 28.8H15.4848C15.8622 28.8 16.1668 28.4936 16.1668 28.1156V15.0492C16.1668 14.6904 15.8769 14.4 15.5187 14.4H13.1727V13.8809C13.1727 13.5047 12.8686 13.2 12.493 13.2H4.19258ZM18.0512 14.4C18.011 14.3988 17.7544 14.397 17.5648 14.6016C17.4178 14.76 17.4026 14.946 17.3996 15V19.2H29.3996V15C29.3996 14.67 29.1302 14.4 28.8008 14.4H27.5434H22.1551H18.0512ZM3.59375 16.8H13.1738C13.5032 16.8 13.7727 17.07 13.7727 17.4V25.8C13.7727 26.13 13.5032 26.4 13.1738 26.4H3.59375C3.26435 26.4 2.99492 26.13 2.99492 25.8V17.4C2.99492 17.07 3.26435 16.8 3.59375 16.8ZM19.7598 16.8H26.9445C27.2739 16.8 27.5434 17.07 27.5434 17.4C27.5434 17.73 27.2739 18 26.9445 18H19.7598C19.4304 18 19.1609 17.73 19.1609 17.4C19.1609 17.07 19.4304 16.8 19.7598 16.8ZM4.19258 18V25.2H12.575V18H4.19258ZM17.3996 20.4V28.2C17.4008 28.2498 17.4108 28.4417 17.5602 28.6043C17.745 28.8047 17.9952 28.8012 18.0336 28.8H28.8008C29.1302 28.8 29.3996 28.53 29.3996 28.2V20.4H17.3996ZM19.7598 22.2C20.0892 22.2 20.3586 22.47 20.3586 22.8V25.8C20.3586 26.13 20.0892 26.4 19.7598 26.4C19.4304 26.4 19.1609 26.13 19.1609 25.8V22.8C19.1609 22.47 19.4304 22.2 19.7598 22.2Z" fill="black"/>
</svg>
