<svg width="30" height="30" viewBox="0 0 30 30" fill="none" xmlns="http://www.w3.org/2000/svg">
<path d="M21.6403 11.7769V9.13128L22.5169 9.2344V7.25159L11.9334 5.63159L0 7.90315V10.2216L1.10625 10.0678V16.5103H4.31531V22.5235L19.5497 24.3694L22.245 24.0432V16.3257L27.0328 16.3407V23.4619L29.2575 23.1928V13.7822L30 13.8188V12.4088L21.6403 11.7769ZM20.5631 10.0472V12.3675L17.3747 12.4266V9.72284L20.5631 10.0472ZM2.76375 10.426L10.0003 9.50815V14.6738L2.76375 14.9138V10.426ZM5.73656 21.1547V16.5094H8.71969V21.4257L5.73656 21.1547ZM9.47812 21.4772V16.5075H11.9325V16.4982H12.9291V21.7903L9.47812 21.4772ZM13.6566 21.8869V16.5L17.6756 16.501V22.2544L13.6566 21.8869Z" fill="black"/>
</svg>
