<svg width="30" height="30" viewBox="0 0 30 30" fill="none" xmlns="http://www.w3.org/2000/svg">
<g clip-path="url(#clip0_2012_72686)">
<path d="M14.9531 0.679688L0.832031 7.79297V29.25H1.95703V8.47266L14.9531 1.95703L27.9609 8.49609V29.25H29.0625V7.79297L14.9531 0.679688ZM23.5898 17.6367L21.8555 13.1602C21.5391 12.3164 20.8242 11.5781 19.4766 11.5781H17.0273H12.8438H10.3711C9.04687 11.5781 8.34375 12.3047 7.99219 13.1602L6.25781 17.6367C5.57812 17.7305 4.35938 18.5273 4.35938 20.0508V25.7461H6.04688V27.5742C6.04688 29.8125 9.22266 29.8008 9.22266 27.5742V25.7461H14.9414H20.6602V27.5742C20.6602 29.8008 23.8359 29.8125 23.8359 27.5742V25.7461H25.5234V20.0508C25.4883 18.5273 24.2812 17.707 23.5898 17.6367ZM7.67578 22.3125C6.87891 22.3125 6.21094 21.6328 6.21094 20.8008C6.21094 19.9805 6.86719 19.2891 7.67578 19.2891C8.47266 19.2891 9.14062 19.9688 9.14062 20.8008C9.14062 21.6328 8.49609 22.3125 7.67578 22.3125ZM14.918 17.5898H8.0625L9.36328 14.0625C9.51562 13.5586 9.77344 13.2188 10.3477 13.1953H14.918H19.4883C20.0625 13.1953 20.3086 13.5586 20.4727 14.0625L21.7734 17.5898H14.918ZM22.1836 22.3125C21.3867 22.3125 20.7188 21.6328 20.7188 20.8008C20.7188 19.9805 21.375 19.2891 22.1836 19.2891C22.9922 19.2891 23.6484 19.9688 23.6484 20.8008C23.6484 21.6328 22.9805 22.3125 22.1836 22.3125Z" fill="black"/>
</g>
<defs>
<clipPath id="clip0_2012_72686">
<rect width="30" height="30" fill="white"/>
</clipPath>
</defs>
</svg>
