<svg width="30" height="30" viewBox="0 0 30 30" fill="none" xmlns="http://www.w3.org/2000/svg">
<g clip-path="url(#clip0_2012_72976)">
<path d="M16.6055 12.8438H14.4609V9.375C14.4609 7.6875 15.8203 6.32813 17.5078 6.32813H23.6133C25.2891 6.32813 26.6602 7.69922 26.6602 9.375V12.8438H24.5508V9.98438C24.5508 9.79688 24.4219 9.66797 24.2344 9.66797C24.0469 9.66797 23.918 9.79688 23.918 9.98438H23.9414V12.8555H17.2148V9.98438C17.2148 9.79688 17.0859 9.66797 16.8984 9.66797C16.7109 9.66797 16.582 9.79688 16.582 9.98438L16.6055 12.8438ZM20.5547 5.76563C21.9023 5.76563 23.0039 4.66406 23.0039 3.31641C23.0039 1.96875 21.9023 0.867188 20.5547 0.867188C19.207 0.867188 18.1055 1.96875 18.1055 3.31641C18.1055 4.66406 19.207 5.76563 20.5547 5.76563ZM0.9375 13.207V16.5117H3.76172V29.6484H26.1328V16.5234H29.0625V13.2187V13.207H0.9375ZM1.58203 10.6992V4.45313C1.58203 4.14844 1.82813 3.90234 2.13281 3.90234H11.5664C11.8711 3.90234 12.1172 4.14844 12.1172 4.45313V10.6875C12.1172 10.9922 11.8711 11.2383 11.5664 11.2383H8.15625V12.0938H9.41015V12.7031H9.03516H4.6875H4.3125V12.0938H5.54297V11.2383H2.13281C1.82813 11.2383 1.58203 11.0039 1.58203 10.6992ZM6.84375 10.9102C7.01953 10.9102 7.16016 10.7812 7.16016 10.5938C7.16016 10.418 7.01953 10.2773 6.84375 10.2773C6.66797 10.2773 6.52735 10.418 6.52735 10.5938C6.52735 10.7812 6.66797 10.9102 6.84375 10.9102ZM2.27344 10.043H11.4258V4.58203H2.27344V10.043Z" fill="black"/>
</g>
<defs>
<clipPath id="clip0_2012_72976">
<rect width="30" height="30" fill="white"/>
</clipPath>
</defs>
</svg>
