<svg width="39" height="40" viewBox="0 0 39 40" fill="none" xmlns="http://www.w3.org/2000/svg">
<g filter="url(#filter0_bd_2012_37543)">
<path fill-rule="evenodd" clip-rule="evenodd" d="M22.379 1.44315C21.5442 0.830405 20.5356 0.5 19.5 0.5C18.4644 0.5 17.4558 0.830405 16.621 1.44315L14.7677 2.80449C14.3981 3.07537 13.9685 3.25293 13.5155 3.32206L11.243 3.67116C10.2195 3.82809 9.27274 4.30746 8.54043 5.03953C7.80811 5.77161 7.32843 6.71822 7.17116 7.74169L6.82206 10.0155C6.75293 10.4685 6.57537 10.8981 6.30449 11.2677L4.94315 13.121C4.3304 13.9558 4 14.9644 4 16C4 17.0356 4.3304 18.0442 4.94315 18.879L6.30449 20.7323C6.57406 21.1016 6.75332 21.5316 6.82206 21.9845L7.17116 24.257C7.32809 25.2805 7.80745 26.2273 8.53953 26.9596C9.27161 27.6919 10.2182 28.1716 11.2417 28.3288L13.5155 28.6779C13.9684 28.7467 14.3984 28.9246 14.7677 29.1955L16.621 30.5569C17.4558 31.1696 18.4644 31.5 19.5 31.5C20.5356 31.5 21.5442 31.1696 22.379 30.5569L24.2323 29.1955C24.6019 28.9246 25.0315 28.7471 25.4845 28.6779L27.757 28.3288C28.7805 28.1719 29.7273 27.6925 30.4596 26.9605C31.1919 26.2284 31.6716 25.2818 31.8288 24.2583L32.1779 21.9845C32.2471 21.5315 32.4246 21.1019 32.6955 20.7323L34.0568 18.879C34.6696 18.0442 35 17.0356 35 16C35 14.9644 34.6696 13.9558 34.0568 13.121L32.6955 11.2677C32.4246 10.8981 32.2471 10.4685 32.1779 10.0155L31.8288 7.74303C31.6719 6.71951 31.1925 5.77274 30.4605 5.04043C29.7284 4.30811 28.7818 3.82843 27.7583 3.67116L25.4845 3.32206C25.0315 3.25293 24.6019 3.07537 24.2323 2.80449L22.379 1.44315ZM17.8179 3.07271C18.3057 2.71486 18.895 2.52191 19.5 2.52191C20.105 2.52191 20.6943 2.71486 21.1821 3.07271L23.0368 4.43404C23.6688 4.8979 24.4036 5.20217 25.1785 5.32094L27.451 5.66868C28.0492 5.76067 28.6025 6.0411 29.0303 6.4692C29.4582 6.8973 29.7383 7.45073 29.83 8.049L30.1804 10.3215C30.2986 11.0968 30.6024 11.832 31.066 12.4646L32.4273 14.3179C32.7851 14.8057 32.9781 15.395 32.9781 16C32.9781 16.605 32.7851 17.1943 32.4273 17.6821L31.066 19.5368C30.6021 20.1688 30.2978 20.9036 30.1791 21.6785L29.8313 23.951C29.7393 24.5492 29.4589 25.1025 29.0308 25.5304C28.6027 25.9582 28.0493 26.2383 27.451 26.33L25.1785 26.6804C24.4032 26.7986 23.668 27.1024 23.0354 27.566L21.1821 28.9273C20.6943 29.2851 20.105 29.4781 19.5 29.4781C18.895 29.4781 18.3057 29.2851 17.8179 28.9273L15.9632 27.566C15.3312 27.1021 14.5964 26.7978 13.8215 26.6791L11.549 26.3313C10.9505 26.2396 10.397 25.9593 9.96884 25.5312C9.54072 25.103 9.2604 24.5495 9.16868 23.951L8.82093 21.6785C8.70237 20.9031 8.3981 20.1679 7.93404 19.5354L6.57271 17.6821C6.21486 17.1943 6.02191 16.605 6.02191 16C6.02191 15.395 6.21486 14.8057 6.57271 14.3179L7.93404 12.4632C8.3979 11.8312 8.70216 11.0964 8.82093 10.3215L9.16868 8.049C9.2604 7.45053 9.54072 6.89696 9.96884 6.46884C10.397 6.04072 10.9505 5.7604 11.549 5.66868L13.8215 5.32094C14.5969 5.20238 15.3321 4.8981 15.9646 4.43404L17.8179 3.07271Z" fill="white" fill-opacity="0.3" shape-rendering="crispEdges"/>
<path fill-rule="evenodd" clip-rule="evenodd" d="M19.5 2.52191C18.895 2.52191 18.3057 2.71486 17.8179 3.07271L15.9646 4.43404C15.3321 4.8981 14.5969 5.20238 13.8215 5.32094L11.549 5.66868C10.9505 5.7604 10.397 6.04072 9.96884 6.46884C9.54072 6.89696 9.2604 7.45053 9.16868 8.049L8.82093 10.3215C8.70216 11.0964 8.3979 11.8312 7.93404 12.4632L6.57271 14.3179C6.21486 14.8057 6.02191 15.395 6.02191 16C6.02191 16.605 6.21486 17.1943 6.57271 17.6821L7.93404 19.5354C8.3981 20.1679 8.70237 20.9031 8.82093 21.6785L9.16868 23.951C9.2604 24.5495 9.54072 25.103 9.96884 25.5312C10.397 25.9593 10.9505 26.2396 11.549 26.3313L13.8215 26.6791C14.5964 26.7978 15.3312 27.1021 15.9632 27.566L17.8179 28.9273C18.3057 29.2851 18.895 29.4781 19.5 29.4781C20.105 29.4781 20.6943 29.2851 21.1821 28.9273L23.0354 27.566C23.668 27.1024 24.4032 26.7986 25.1785 26.6804L27.451 26.33C28.0493 26.2383 28.6027 25.9582 29.0308 25.5304C29.4589 25.1025 29.7393 24.5492 29.8313 23.951L30.1791 21.6785C30.2978 20.9036 30.6021 20.1688 31.066 19.5368L32.4273 17.6821C32.7851 17.1943 32.9781 16.605 32.9781 16C32.9781 15.395 32.7851 14.8057 32.4273 14.3179L31.066 12.4646C30.6024 11.832 30.2986 11.0968 30.1804 10.3215L29.83 8.049C29.7383 7.45073 29.4582 6.8973 29.0303 6.4692C28.6025 6.0411 28.0492 5.76067 27.451 5.66868L25.1785 5.32094C24.4036 5.20217 23.6688 4.8979 23.0368 4.43404L21.1821 3.07271C20.6943 2.71486 20.105 2.52191 19.5 2.52191ZM27.451 12.3154C27.4556 12.5773 27.3584 12.8307 27.1799 13.0224L19.0927 21.1095C18.9032 21.2988 18.6462 21.4051 18.3783 21.4051C18.1105 21.4051 17.8535 21.2988 17.664 21.1095L13.6204 17.0659C13.4419 16.8743 13.3446 16.6208 13.3493 16.3589C13.3539 16.0971 13.46 15.8472 13.6452 15.662C13.8304 15.4768 14.0803 15.3707 14.3422 15.366C14.6041 15.3614 14.8575 15.4586 15.0491 15.6372L18.3783 18.9664L25.7511 11.5936C25.9428 11.4151 26.1962 11.3178 26.4581 11.3225C26.72 11.3271 26.9699 11.4332 27.1551 11.6184C27.3403 11.8036 27.4464 12.0535 27.451 12.3154Z" fill="#33FF00" shape-rendering="crispEdges"/>
</g>
<defs>
<filter id="filter0_bd_2012_37543" x="0" y="-3.5" width="39" height="43" filterUnits="userSpaceOnUse" color-interpolation-filters="sRGB">
<feFlood flood-opacity="0" result="BackgroundImageFix"/>
<feGaussianBlur in="BackgroundImageFix" stdDeviation="2"/>
<feComposite in2="SourceAlpha" operator="in" result="effect1_backgroundBlur_2012_37543"/>
<feColorMatrix in="SourceAlpha" type="matrix" values="0 0 0 0 0 0 0 0 0 0 0 0 0 0 0 0 0 0 127 0" result="hardAlpha"/>
<feOffset dy="4"/>
<feGaussianBlur stdDeviation="2"/>
<feComposite in2="hardAlpha" operator="out"/>
<feColorMatrix type="matrix" values="0 0 0 0 0 0 0 0 0 0 0 0 0 0 0 0 0 0 0.25 0"/>
<feBlend mode="normal" in2="effect1_backgroundBlur_2012_37543" result="effect2_dropShadow_2012_37543"/>
<feBlend mode="normal" in="SourceGraphic" in2="effect2_dropShadow_2012_37543" result="shape"/>
</filter>
</defs>
</svg>
